<svg width="116" height="71" viewBox="0 0 116 71" fill="none" xmlns="http://www.w3.org/2000/svg">
<g clip-path="url(#clip0_294_1650)">
<path d="M48.9675 29.1396H40.9449C37.1459 29.1396 33.9674 31.9563 33.8477 36.1488V38.3046C33.8477 42.0746 36.852 45.2813 40.9123 45.303H49.0546C53.1475 45.2596 56.1192 42.0746 56.1192 38.3046V36.1488C56.1083 32.3788 52.9516 29.1396 48.9675 29.1396ZM51.4711 37.6763C51.4276 39.7563 49.9036 41.3596 47.7483 41.3596H42.2077C40.0523 41.3596 38.4195 39.583 38.4957 37.6763V36.9071C38.5393 34.9138 40.0523 33.2238 42.2077 33.2238H47.7483C49.6968 33.2455 51.4711 34.773 51.4711 36.9071V37.6763Z" fill="black"/>
<path d="M71.6853 7.78747L65.0235 14.905H52.7012L59.4828 7.66831L52.7012 0.431641H65.0235L71.6853 7.54914L71.7942 7.65747L71.6853 7.78747Z" fill="black"/>
<path d="M93.6853 7.78747L87.0126 14.905H74.7012L81.4719 7.66831L74.7012 0.431641H87.0126L93.6853 7.54914L93.7942 7.65747L93.6853 7.78747Z" fill="black"/>
<path d="M115.064 7.78747L108.402 14.905H96.0801L102.862 7.66831L96.0801 0.431641H108.402L115.064 7.54914L115.184 7.65747L115.064 7.78747Z" fill="black"/>
<path d="M4.80445 14.6439C4.34727 14.6439 3.93362 14.5789 3.5744 14.4598C3.2043 14.3406 2.91039 14.1564 2.67091 13.9289C2.43143 13.7014 2.28992 13.4198 2.22461 13.1056L3.44378 12.9648C3.53086 13.2356 3.70503 13.4414 3.97716 13.5931C4.2493 13.7448 4.55409 13.8098 4.89154 13.8098C5.08747 13.8098 5.27253 13.7881 5.44669 13.7448C5.62086 13.7014 5.77326 13.6256 5.893 13.5389C6.01274 13.4523 6.06716 13.3439 6.06716 13.2031C6.06716 13.1598 6.05628 13.1056 6.0345 13.0623C6.01273 13.0189 5.98008 12.9756 5.94742 12.9323C5.90388 12.8889 5.84945 12.8564 5.76237 12.8239C5.68617 12.7914 5.5882 12.7589 5.46846 12.7264L3.86831 12.3689C3.74857 12.3473 3.60706 12.3039 3.45466 12.2606C3.29138 12.2173 3.13898 12.1414 2.99747 12.0548C2.84508 11.9681 2.72534 11.8489 2.62737 11.6973C2.5294 11.5456 2.47497 11.3614 2.47497 11.1339C2.47497 10.8198 2.58383 10.5489 2.79065 10.3431C2.99748 10.1373 3.28049 9.97475 3.62883 9.87725C3.97716 9.77975 4.35815 9.72559 4.78268 9.72559C5.20721 9.72559 5.5882 9.79059 5.91476 9.88809C6.25221 9.99642 6.52435 10.1481 6.75294 10.3539C6.98154 10.5598 7.14482 10.8089 7.24279 11.1014L5.99096 11.2639C5.94742 11.1123 5.86034 10.9823 5.7406 10.8739C5.62086 10.7656 5.46846 10.6898 5.30518 10.6356C5.1419 10.5814 4.95685 10.5489 4.7718 10.5489C4.58674 10.5489 4.41258 10.5598 4.26018 10.6031C4.0969 10.6464 3.96628 10.7114 3.86831 10.7873C3.77034 10.8631 3.71591 10.9606 3.71591 11.0798C3.71591 11.1773 3.75945 11.2639 3.83565 11.3289C3.92273 11.3939 4.0207 11.4481 4.15133 11.4806C4.28195 11.5239 4.40169 11.5564 4.53232 11.5781L5.59909 11.8056C5.76237 11.8381 5.93654 11.8814 6.13247 11.9356C6.32841 11.9898 6.51346 12.0656 6.68763 12.1631C6.8618 12.2606 7.01419 12.3798 7.12305 12.5423C7.24279 12.6939 7.29721 12.8998 7.29721 13.1381C7.29721 13.3873 7.2319 13.6148 7.09039 13.7989C6.94888 13.9831 6.76383 14.1456 6.53523 14.2648C6.30664 14.3839 6.0345 14.4814 5.7406 14.5464C5.41403 14.6223 5.12013 14.6439 4.80445 14.6439Z" fill="black"/>
<path d="M4.80448 14.7201C4.34729 14.7201 3.92276 14.6551 3.55266 14.5359C3.18255 14.4059 2.86688 14.2218 2.6274 13.9835C2.38792 13.7451 2.22464 13.4526 2.15932 13.1168L2.14844 13.041L3.49823 12.8893L3.52 12.9435C3.5962 13.2035 3.75948 13.3876 4.02073 13.5285C4.28198 13.6693 4.57589 13.7451 4.90245 13.7451C5.0875 13.7451 5.27255 13.7234 5.43583 13.6801C5.61 13.6368 5.74062 13.5718 5.84948 13.4851C5.94745 13.4093 5.99099 13.3226 5.99099 13.2143C5.99099 13.171 5.9801 13.1385 5.96922 13.106C5.95833 13.0735 5.92568 13.041 5.89302 13.0085C5.86037 12.976 5.80594 12.9434 5.72974 12.9109C5.65354 12.8784 5.55557 12.846 5.44672 12.8243L3.84656 12.4668C3.72682 12.4451 3.58531 12.4018 3.42203 12.3585C3.25875 12.3043 3.09547 12.2393 2.94307 12.1418C2.79068 12.0443 2.66005 11.9251 2.5512 11.7626C2.44235 11.6001 2.38792 11.4051 2.38792 11.1668C2.38792 10.831 2.49677 10.5493 2.71448 10.3218C2.93219 10.1051 3.22609 9.94262 3.57443 9.83428C3.92276 9.73678 4.30375 9.68262 4.72828 9.68262C4.73917 9.68262 4.75005 9.68262 4.75005 9.68262C5.17459 9.68262 5.56646 9.74762 5.90391 9.85595C6.24135 9.96428 6.53526 10.1268 6.76386 10.3435C6.99245 10.5601 7.16662 10.8201 7.27547 11.1234L7.30813 11.2101L5.90391 11.3943L5.88214 11.3401C5.8386 11.1993 5.7624 11.0801 5.65354 10.9826C5.5338 10.8851 5.40318 10.8093 5.2399 10.7551C5.07662 10.7009 4.90245 10.6793 4.72828 10.6685C4.55412 10.6685 4.39083 10.6793 4.23844 10.7226C4.08604 10.766 3.9663 10.8201 3.86834 10.896C3.78125 10.961 3.7486 11.0368 3.7486 11.1343C3.7486 11.2101 3.78125 11.2751 3.84656 11.3293C3.92276 11.3835 4.02073 11.4376 4.14047 11.4701C4.26021 11.5135 4.39084 11.5459 4.52146 11.5676L5.58823 11.7951C5.75151 11.8276 5.92568 11.871 6.12161 11.9251C6.31755 11.9793 6.51349 12.0551 6.69854 12.1526C6.8836 12.2501 7.03599 12.391 7.16662 12.5535C7.28636 12.716 7.35167 12.9326 7.35167 13.1818C7.35167 13.4526 7.27547 13.6909 7.13396 13.8859C6.99245 14.0809 6.79651 14.2434 6.55703 14.3734C6.31755 14.5034 6.04542 14.5901 5.74062 14.6551C5.42495 14.6876 5.12016 14.7201 4.80448 14.7201ZM2.31172 13.171C2.37703 13.4418 2.51854 13.6801 2.72537 13.8859C2.95396 14.1026 3.24787 14.276 3.5962 14.406C3.95542 14.5251 4.35818 14.5901 4.80448 14.5901C5.10927 14.5901 5.41406 14.5576 5.69708 14.5035C5.9801 14.4385 6.24136 14.3518 6.46995 14.2326C6.68766 14.1135 6.87271 13.9618 7.00333 13.7884C7.13396 13.6151 7.19927 13.3985 7.19927 13.1601C7.19927 12.9435 7.14485 12.7485 7.03599 12.6076C6.92714 12.4668 6.78563 12.3368 6.62234 12.2501C6.44818 12.1526 6.26313 12.0876 6.07807 12.0335C5.88214 11.9793 5.70797 11.936 5.55557 11.9035L4.4888 11.6759C4.35818 11.6543 4.22755 11.611 4.09693 11.5785C3.9663 11.5351 3.84656 11.481 3.75948 11.416C3.66151 11.3401 3.60709 11.2318 3.60709 11.1126C3.60709 10.9826 3.66151 10.8635 3.78125 10.766C3.8901 10.6793 4.03162 10.6143 4.20578 10.571C4.36907 10.5276 4.55412 10.506 4.73917 10.506C4.93511 10.506 5.12016 10.5384 5.29433 10.5926C5.46849 10.6468 5.63177 10.7335 5.75151 10.8418C5.87125 10.9393 5.95834 11.0585 6.00188 11.2101L7.11219 11.0693C7.01422 10.8201 6.87271 10.6034 6.67677 10.4301C6.45906 10.2351 6.18693 10.0835 5.86037 9.97512C5.5338 9.86679 5.1637 9.81262 4.75005 9.81262C4.73917 9.81262 4.72828 9.81262 4.72828 9.81262C4.32552 9.81262 3.95542 9.86678 3.61797 9.96428C3.28052 10.0618 3.00839 10.2134 2.81245 10.4193C2.61651 10.6143 2.51854 10.8635 2.51854 11.156C2.51854 11.3618 2.56208 11.5459 2.64917 11.6759C2.73625 11.8168 2.85599 11.9251 2.9975 12.0118C3.13901 12.0985 3.29141 12.1634 3.4438 12.2068C3.5962 12.2501 3.73771 12.2934 3.85745 12.3151L5.45761 12.6726C5.58823 12.7051 5.6862 12.7376 5.77328 12.7701C5.86037 12.8026 5.92568 12.846 5.96922 12.8893C6.02365 12.9326 6.0563 12.9868 6.07807 13.041C6.09984 13.0951 6.11073 13.1493 6.11073 13.2035C6.11073 13.3551 6.04542 13.4851 5.91479 13.5935C5.79505 13.691 5.63177 13.7668 5.44672 13.8101C5.26167 13.8535 5.06573 13.8859 4.86979 13.8859C4.52146 13.8859 4.1949 13.8101 3.92276 13.6585C3.66151 13.5176 3.47646 13.3118 3.37849 13.041L2.31172 13.171Z" fill="black"/>
<path d="M9.94151 14.5476V10.6584H8.00391V9.82422H13.0439V10.6584H11.0954V14.5476H9.94151Z" fill="black"/>
<path d="M11.1716 14.623H9.86534V10.7338H7.92773V9.75879H13.1092V10.7338H11.1716V14.623ZM10.0068 14.4821H11.0301V10.593H12.9677V9.89962H8.06925V10.593H10.0068V14.4821Z" fill="black"/>
<path d="M16.529 14.6451C16.0283 14.6451 15.5929 14.5692 15.2228 14.4176C14.8418 14.2659 14.5479 14.0492 14.3411 13.7676C14.1342 13.4859 14.0254 13.1609 14.0254 12.7817V9.83505L15.201 9.82422V12.7709C15.201 12.9226 15.2337 13.0634 15.299 13.1934C15.3643 13.3234 15.4623 13.4317 15.582 13.5184C15.7017 13.6051 15.8433 13.6809 16.0065 13.7351C16.1698 13.7892 16.344 13.8109 16.5182 13.8109C16.7032 13.8109 16.8774 13.7892 17.0406 13.7351C17.2039 13.6809 17.3454 13.6159 17.4652 13.5184C17.5849 13.4317 17.6829 13.3126 17.7482 13.1934C17.8135 13.0634 17.8462 12.9226 17.8462 12.7709V9.82422H19.0218V12.7817C19.0218 13.1609 18.9129 13.4859 18.7061 13.7676C18.4993 14.0492 18.2054 14.2659 17.8244 14.4176C17.4652 14.5692 17.0298 14.6451 16.529 14.6451Z" fill="black"/>
<path d="M16.5291 14.7206C16.0283 14.7206 15.582 14.6448 15.1902 14.4823C14.7983 14.3198 14.4935 14.0923 14.2758 13.8106C14.0581 13.5181 13.9492 13.1715 13.9492 12.7815V9.75897L15.2664 9.74814V12.7706C15.2664 12.9115 15.299 13.0415 15.3643 13.1606C15.4296 13.2798 15.5167 13.3773 15.6256 13.464C15.7344 13.5506 15.8759 13.6156 16.0283 13.659C16.344 13.7565 16.725 13.7565 17.0298 13.659C17.1822 13.6156 17.3128 13.5398 17.4326 13.4531C17.5414 13.3665 17.6285 13.269 17.6938 13.1498C17.7591 13.0306 17.7809 12.9006 17.7809 12.7598V9.7373H19.098V12.7598C19.098 13.1498 18.9892 13.4965 18.7715 13.789C18.5537 14.0815 18.249 14.309 17.8571 14.4606C17.4761 14.6448 17.0298 14.7206 16.5291 14.7206ZM14.0907 9.8998V12.7815C14.0907 13.139 14.1887 13.464 14.3955 13.724C14.6023 13.9948 14.8854 14.2006 15.2446 14.3523C15.6147 14.504 16.0392 14.5798 16.5291 14.5798C17.008 14.5798 17.4434 14.504 17.8135 14.3523C18.1728 14.2006 18.4667 13.9948 18.6626 13.724C18.8585 13.4531 18.9674 13.139 18.9674 12.7815V9.8998H17.9333V12.7815C17.9333 12.944 17.9006 13.0956 17.8244 13.2365C17.7482 13.3665 17.6503 13.4856 17.5305 13.5831C17.3999 13.6806 17.2584 13.7565 17.0842 13.8106C16.7577 13.919 16.344 13.919 16.0066 13.8106C15.8433 13.7565 15.6909 13.6806 15.5603 13.5831C15.4296 13.4856 15.3317 13.3665 15.2555 13.2365C15.1793 13.0956 15.1466 12.944 15.1466 12.7815V9.8998H14.0907Z" fill="black"/>
<path d="M20.5234 14.5466V9.82324H22.5155C22.559 9.82324 22.6679 9.82324 22.8094 9.82324C22.9618 9.82324 23.1033 9.83408 23.2448 9.84491C23.7455 9.88824 24.1592 10.0182 24.5075 10.2457C24.8558 10.4624 25.1171 10.7441 25.2913 11.0799C25.4654 11.4157 25.5634 11.7841 25.5634 12.1849C25.5634 12.5857 25.4763 12.9541 25.2913 13.2899C25.1171 13.6257 24.845 13.9074 24.5075 14.1241C24.1592 14.3407 23.7455 14.4707 23.2448 14.5249C23.1033 14.5357 22.9618 14.5466 22.8094 14.5466C22.657 14.5466 22.559 14.5466 22.5155 14.5466H20.5234ZM21.71 13.7124H22.5264C22.6026 13.7124 22.7114 13.7124 22.842 13.7124C22.9727 13.7124 23.0924 13.7016 23.2013 13.6799C23.4734 13.6366 23.6911 13.5391 23.8544 13.3874C24.0285 13.2357 24.1483 13.0516 24.2354 12.8457C24.3116 12.6291 24.3551 12.4124 24.3551 12.1849C24.3551 11.9466 24.3116 11.7191 24.2245 11.5132C24.1374 11.2966 24.0177 11.1232 23.8435 10.9716C23.6693 10.8199 23.4625 10.7332 23.2013 10.6899C23.0924 10.6682 22.9727 10.6574 22.842 10.6574C22.7114 10.6574 22.6026 10.6574 22.5264 10.6574H21.71V13.7124Z" fill="black"/>
<path d="M22.5144 14.623H20.457V9.75879H22.5144C22.5579 9.75879 22.6668 9.75879 22.8192 9.75879C22.9716 9.75879 23.124 9.76962 23.2655 9.78045C23.7662 9.82379 24.2016 9.96462 24.5608 10.1921C24.9092 10.4196 25.1922 10.7013 25.3664 11.048C25.5514 11.3946 25.6385 11.7738 25.6385 12.1855C25.6385 12.5971 25.5405 12.9763 25.3664 13.323C25.1813 13.6696 24.9092 13.9621 24.5608 14.1788C24.2125 14.4063 23.7771 14.5363 23.2655 14.5905C23.124 14.6013 22.9824 14.6121 22.8192 14.6121C22.6668 14.623 22.5688 14.623 22.5144 14.623ZM20.5985 14.4821H22.5144C22.5579 14.4821 22.6668 14.4821 22.8083 14.4821C22.9607 14.4821 23.1022 14.4713 23.2328 14.4605C23.7118 14.4171 24.1254 14.2871 24.4629 14.0705C24.8003 13.8646 25.0507 13.583 25.2248 13.258C25.399 12.933 25.4861 12.5755 25.4861 12.1855C25.4861 11.7955 25.399 11.438 25.2248 11.113C25.0507 10.788 24.8003 10.5171 24.4629 10.3005C24.1254 10.0838 23.7118 9.95379 23.2328 9.91046C23.1022 9.89962 22.9498 9.88879 22.7974 9.88879C22.645 9.88879 22.547 9.88879 22.5035 9.88879H20.5877V14.4821H20.5985ZM22.5144 13.778H21.6327V10.593H22.5144C22.5906 10.593 22.6994 10.593 22.8301 10.593C22.9607 10.593 23.0804 10.6038 23.2002 10.6255C23.4723 10.6688 23.7009 10.7663 23.8751 10.918C24.0492 11.0696 24.1907 11.2646 24.2778 11.4813C24.3649 11.698 24.4084 11.9363 24.4084 12.1746C24.4084 12.413 24.3649 12.6405 24.2778 12.8571C24.1907 13.0738 24.0601 13.2688 23.8859 13.4313C23.7118 13.5938 23.4723 13.6913 23.1893 13.7346C23.0804 13.7455 22.9607 13.7563 22.8301 13.7671C22.6994 13.778 22.5906 13.778 22.5144 13.778ZM21.7742 13.6371H22.5144C22.5906 13.6371 22.6994 13.6371 22.8301 13.6371C22.9607 13.6371 23.0804 13.6263 23.1784 13.6046C23.4288 13.5613 23.6356 13.4746 23.7989 13.3338C23.9621 13.193 24.0819 13.0196 24.1581 12.8138C24.2343 12.608 24.2778 12.4021 24.2778 12.1855C24.2778 11.958 24.2343 11.7413 24.1581 11.5355C24.0819 11.3296 23.9513 11.1671 23.7989 11.0263C23.6356 10.8855 23.4287 10.7988 23.1893 10.7663C23.0804 10.7446 22.9716 10.7446 22.8409 10.7338C22.7103 10.7338 22.6015 10.7338 22.5253 10.7338H21.7851V13.6371H21.7742Z" fill="black"/>
<path d="M26.9785 14.5476V9.82422H28.1432V14.5476H26.9785Z" fill="black"/>
<path d="M28.2086 14.623H26.9023V9.75879H28.2086V14.623ZM27.0547 14.4821H28.078V9.89962H27.0547V14.4821Z" fill="black"/>
<path d="M32.3654 14.6449C31.745 14.6449 31.2224 14.5474 30.7761 14.3416C30.3298 14.1357 29.9815 13.8432 29.742 13.4749C29.5026 13.1066 29.3828 12.6732 29.3828 12.1857C29.3828 11.6982 29.5026 11.2649 29.742 10.8966C29.9815 10.5282 30.3298 10.2357 30.7761 10.0299C31.2224 9.82406 31.7558 9.72656 32.3654 9.72656C32.975 9.72656 33.5084 9.82406 33.9547 10.0299C34.401 10.2357 34.7493 10.5282 34.9888 10.8966C35.2283 11.2649 35.348 11.6982 35.348 12.1857C35.348 12.6732 35.2283 13.1066 34.9888 13.4749C34.7493 13.8432 34.401 14.1357 33.9547 14.3416C33.5084 14.5474 32.975 14.6449 32.3654 14.6449ZM32.3654 13.8107C32.7573 13.8107 33.0839 13.7457 33.3342 13.6157C33.5955 13.4857 33.7914 13.2907 33.922 13.0524C34.0527 12.8032 34.118 12.5216 34.118 12.1966C34.118 11.8716 34.0527 11.5791 33.922 11.3407C33.7914 11.1024 33.5955 10.9182 33.3342 10.7774C33.073 10.6474 32.7464 10.5716 32.3654 10.5716C31.9735 10.5716 31.647 10.6366 31.3966 10.7666C31.1354 10.8966 30.9394 11.0916 30.8088 11.3299C30.6782 11.5791 30.6129 11.8607 30.6129 12.1857C30.6129 12.5107 30.6782 12.8032 30.8088 13.0416C30.9394 13.2799 31.1354 13.4641 31.3966 13.6049C31.647 13.7349 31.9735 13.7999 32.3654 13.8107Z" fill="black"/>
<path d="M32.3663 14.7204C31.7458 14.7204 31.2015 14.6121 30.7443 14.4062C30.2872 14.2004 29.9279 13.8971 29.6885 13.5179C29.4381 13.1387 29.3184 12.6946 29.3184 12.1854C29.3184 11.6871 29.449 11.2321 29.6885 10.8529C29.9388 10.4737 30.2872 10.1704 30.7443 9.96456C31.2015 9.75872 31.7458 9.65039 32.3663 9.65039C32.9867 9.65039 33.531 9.75872 33.9882 9.96456C34.4454 10.1704 34.8046 10.4737 35.0441 10.8529C35.2945 11.2321 35.4142 11.6762 35.4142 12.1854C35.4142 12.6837 35.2836 13.1387 35.0441 13.5179C34.7937 13.8971 34.4454 14.2004 33.9882 14.4062C33.531 14.6121 32.9867 14.7204 32.3663 14.7204ZM32.3663 9.79122C31.7676 9.79122 31.2342 9.88872 30.8097 10.0946C30.3742 10.2896 30.0368 10.5712 29.8082 10.9287C29.5796 11.2862 29.4599 11.7087 29.4599 12.1854C29.4599 12.6621 29.5796 13.0846 29.8082 13.4421C30.0368 13.7996 30.3742 14.0812 30.8097 14.2762C31.2451 14.4821 31.7676 14.5796 32.3663 14.5796C32.965 14.5796 33.4984 14.4821 33.9229 14.2762C34.3583 14.0812 34.6958 13.7996 34.9243 13.4421C35.1529 13.0846 35.2727 12.6621 35.2727 12.1854C35.2727 11.7087 35.1529 11.2862 34.9243 10.9287C34.6958 10.5712 34.3583 10.2896 33.9229 10.0946C33.4875 9.89955 32.965 9.79122 32.3663 9.79122ZM32.3989 13.8754C32.388 13.8754 32.3772 13.8754 32.3663 13.8754C31.9635 13.8754 31.6261 13.7996 31.3648 13.6587C31.0927 13.5179 30.8859 13.3229 30.7552 13.0737C30.6246 12.8246 30.5484 12.5212 30.5484 12.1854C30.5484 11.8496 30.6137 11.5462 30.7552 11.2971C30.8859 11.0371 31.0927 10.8421 31.3648 10.7012C31.6261 10.5712 31.9526 10.4954 32.3336 10.4954C32.3445 10.4954 32.3554 10.4954 32.3772 10.4954C32.7799 10.4954 33.1174 10.5712 33.3786 10.7121C33.6508 10.8529 33.8576 11.0479 33.9882 11.2971C34.1188 11.5462 34.195 11.8496 34.195 12.1854C34.195 12.5212 34.1297 12.8246 33.9882 13.0737C33.8467 13.3337 33.6399 13.5287 33.3786 13.6696C33.1065 13.8104 32.7799 13.8754 32.3989 13.8754ZM32.3227 10.6362C31.9635 10.6362 31.6587 10.7012 31.4192 10.8204C31.1689 10.9504 30.9838 11.1237 30.8641 11.3621C30.7443 11.6004 30.679 11.8712 30.679 12.1854C30.679 12.4996 30.7443 12.7812 30.8641 13.0087C30.9838 13.2362 31.1689 13.4096 31.4192 13.5396C31.6696 13.6696 31.9853 13.7346 32.3663 13.7346C32.7473 13.7346 33.0629 13.6804 33.3024 13.5504C33.5419 13.4204 33.7378 13.2471 33.8576 13.0087C33.9773 12.7704 34.0426 12.4996 34.0426 12.1854C34.0426 11.8712 33.9773 11.5896 33.8576 11.3621C33.7378 11.1346 33.5528 10.9612 33.3024 10.8312C33.0521 10.7012 32.7364 10.6362 32.3554 10.6362C32.3554 10.6362 32.3336 10.6362 32.3227 10.6362Z" fill="black"/>
<path d="M27.9802 58.1519C27.9367 56.6027 27.719 54.8152 25.5746 52.9952C23.5063 51.251 19.925 51.5327 19.7944 51.5435H0.908203V71.2277L20.0665 71.1844C20.2189 71.1844 23.9635 71.076 25.8902 69.3752C28.285 67.2735 28.002 64.4569 27.9911 64.3485C27.9802 64.316 28.0238 59.766 27.9802 58.1519ZM23.2015 63.8394C23.2015 64.4135 23.1145 65.7352 22.298 66.2552C21.2204 66.9594 19.9903 66.9377 19.9686 66.9269H5.65425V55.8985H19.6856C19.7073 55.8985 21.4925 55.6602 22.3851 56.7977C23.2995 57.9677 23.1798 60.221 23.1798 60.2535V63.5685C23.1907 63.5685 23.2015 63.666 23.2015 63.8394Z" fill="black"/>
<path d="M28.3713 45.3029C27.3263 45.3029 26.2813 45.3029 26.2813 45.3029H26.0962V31.4146C26.0962 31.4038 26.1071 31.1546 25.9221 30.9704C25.7697 30.8079 25.5193 30.7321 25.1819 30.7321C24.2784 30.7321 23.9844 31.6421 23.9736 31.6529L18.3676 45.2813H13.1752L13.1317 45.1621L7.58013 31.6638C7.56925 31.6096 7.26445 30.7321 6.37185 30.7321C6.0344 30.7321 5.78404 30.8079 5.63164 30.9704C5.44659 31.1654 5.44659 31.4038 5.44659 31.4146V45.3138H5.26154C5.26154 45.3138 4.21654 45.3138 3.17154 45.3138C0.896487 45.3029 0.896484 45.3029 0.896484 45.0971V29.8438C0.896484 29.0204 1.10331 28.2404 1.49518 27.6013C1.8544 27.0054 2.9756 25.6079 5.56633 25.5104C8.92992 25.3804 10.6607 26.4529 11.9452 29.4754C12.533 30.8621 14.3944 35.3038 15.766 38.6079C17.1484 35.3038 18.9989 30.8621 19.5867 29.4754C20.8712 26.4638 22.602 25.3913 25.9656 25.5104C28.5672 25.6079 29.6775 27.0054 30.0367 27.6013C30.4286 28.2513 30.6354 29.0204 30.6354 29.8438V45.0863C30.6463 45.2921 30.6463 45.2921 28.3713 45.3029Z" fill="black"/>
<path d="M52.5911 62.7237C52.5693 62.0087 52.4822 61.1637 52.3298 60.4596C51.9815 58.8129 51.655 57.8596 50.0004 56.3537C48.4329 54.9346 45.2543 54.9454 45.2543 54.9454L30.1562 54.9346V58.5854H44.3073C44.3073 58.5854 46.049 58.4337 47.0831 59.3437C47.7689 59.9396 47.7689 61.2179 47.7689 61.2179L37.2971 61.1962C37.2971 61.1962 34.0968 61.1746 32.6381 62.0737C31.0053 63.0704 30.3957 64.3812 30.3522 66.4937C30.3087 68.2921 31.506 71.0762 35.6969 71.2171C35.7514 71.2171 40.4756 71.2062 43.5889 71.1954L43.5997 71.2171H52.602L52.5911 62.7237ZM36.4045 67.3496C36.4045 67.3496 34.837 67.3604 34.8696 66.0496C34.9132 64.5437 36.9814 64.7712 36.9814 64.7712H44.9278C44.9278 64.7712 46.5606 64.6521 47.2572 65.4862C47.7906 66.1254 47.7471 67.3604 47.7471 67.3604L36.4045 67.3496Z" fill="black"/>
<path d="M62.8347 66.9266H67.3739V71.2383H62.138C62.1271 71.2383 62.0945 71.2383 62.0291 71.2383C61.5502 71.2383 59.5799 71.13 57.7947 69.3858C55.7809 67.425 55.8353 65.3558 55.8462 65.2583V51.6191H60.5487C60.7229 51.6191 60.7229 51.6408 60.7338 53.2441L60.7664 64.8466C60.7555 65.995 61.6917 66.9266 62.8347 66.9266Z" fill="black"/>
<path d="M69.1492 45.3139C68.5723 45.3139 68.0389 45.3139 67.7777 45.3031C66.5694 45.2706 65.655 44.2197 65.6224 44.1764L61.1593 39.4531C61.1376 39.4314 60.2885 38.6839 59.5918 37.0589C58.8952 35.4339 58.9605 33.7764 58.9714 33.7114V29.1289H63.6739V29.3131C63.6739 29.3456 63.6412 32.2381 63.7501 33.6356C63.8589 35.0006 64.6645 36.2789 64.6753 36.2897C65.6006 37.4164 68.1587 40.4389 68.8553 40.7856C69.0622 40.8939 69.269 40.9481 69.4649 40.9481C69.6609 40.9481 69.8568 40.8831 70.0636 40.7856C70.7603 40.4389 73.3292 37.4164 74.2545 36.2789C74.2545 36.2789 75.06 35.0006 75.1689 33.6464C75.2777 32.2489 75.2451 29.3456 75.2451 29.3239V29.1397H79.9585V33.7222C79.9585 33.7872 80.0347 35.4339 79.338 37.0589C78.9897 37.8714 78.5978 38.4672 78.293 38.8572C77.9882 39.2581 77.7705 39.4422 77.7487 39.4639L73.2857 44.1872C73.253 44.2306 72.3387 45.2706 71.1304 45.3031C70.88 45.3139 70.3793 45.3139 69.835 45.3139H69.1492Z" fill="black"/>
<path d="M84.0068 23.5932C83.5932 21.7624 85.2042 20.1482 87.0439 20.5599C87.9691 20.7657 88.7202 21.5024 88.9379 22.4341C89.3625 24.2757 87.7405 25.8899 85.89 25.4782C84.9648 25.2724 84.2137 24.5249 84.0068 23.5932Z" fill="black"/>
<path d="M84.0176 28.75H85.879C87.5445 28.75 88.9051 30.7217 88.9051 32.3792V45.3142H84.0176V28.75Z" fill="black"/>
<path d="M77.2472 67.5877C77.2472 67.5877 77.1275 67.5986 76.9533 67.5986C76.3655 67.5986 75.0483 67.5227 74.417 66.8836C73.7748 66.2336 73.7094 65.3344 73.6986 64.9769H84.1594C84.2901 64.9769 87.2618 64.9986 88.764 64.1102C90.3968 63.1352 91.1261 61.7811 91.1261 59.7119C91.1261 57.5019 89.6892 55.0969 85.6399 54.9561C85.5637 54.9561 76.1151 54.9669 75.0484 54.9777C74.9395 54.9777 72.4903 54.9127 70.8139 56.5919C69.1485 58.2711 69.0178 59.9719 68.9525 60.9036C68.8763 61.8786 68.7348 63.9044 69.1049 65.6702C69.4641 67.3277 69.7254 68.2702 71.4344 69.8302C72.9584 71.2169 75.7886 71.2602 76.1587 71.2602H91.3003V67.5986L77.2472 67.5877ZM73.6986 61.4127C73.6986 61.2177 73.7203 60.9036 73.7748 60.5677C73.8401 60.2319 73.938 59.8744 74.1122 59.6252C74.7 58.7802 76.3873 58.8344 76.409 58.8344H84.5513C84.5622 58.8344 85.7269 58.8019 86.2821 59.3436C86.478 59.5277 86.5651 59.7552 86.5651 60.0477C86.5651 61.3152 85.2806 61.4236 85.2371 61.4344H73.6986V61.4127Z" fill="black"/>
<path d="M115.249 59.918C115.51 61.5105 115.488 62.4313 115.477 62.5071V71.1955H111.112V62.3338C111.112 60.503 109.61 59.0405 107.694 59.008C107.651 59.008 103.383 58.9646 102.578 59.008C100.455 59.138 99.0946 60.2863 98.9749 62.0413V71.2388H94.0547V54.5771H98.9749V56.6463C101.087 54.978 104.102 55.0538 104.145 55.0538H108.228C108.282 55.0538 109.643 55.043 111.047 55.368C113.202 55.888 114.889 57.708 115.249 59.918Z" fill="black"/>
<path d="M101.512 41.6522C101.512 41.6522 101.392 41.663 101.207 41.663C100.609 41.663 99.3131 41.5872 98.6818 40.948C98.0395 40.298 97.9634 39.3988 97.9634 39.0413H108.424C108.555 39.0413 111.527 39.063 113.029 38.1747C114.662 37.1997 115.38 35.8455 115.38 33.7763C115.38 31.5663 113.943 29.1613 109.894 29.0205C109.807 29.0205 100.369 29.0313 99.3023 29.0422C99.2043 29.0422 96.7442 28.9772 95.0678 30.6563C93.4024 32.3355 93.2826 34.0363 93.2064 34.968C93.1302 35.943 92.9887 37.9688 93.3588 39.7347C93.718 41.3922 93.9793 42.3347 95.6883 43.8838C97.2123 45.2705 100.042 45.3138 100.413 45.3138H115.554V41.663H101.512V41.6522ZM97.9742 35.488C97.9742 35.293 97.996 34.9788 98.0504 34.643C98.1158 34.3072 98.2137 33.9497 98.3879 33.7005C98.9757 32.8555 100.663 32.9097 100.685 32.9097H108.827C108.838 32.9097 110.003 32.8772 110.558 33.4188C110.754 33.603 110.841 33.8305 110.841 34.123C110.841 35.3905 109.556 35.4988 109.513 35.5097H97.9742V35.488Z" fill="black"/>
</g>
<defs>
<clipPath id="clip0_294_1650">
<rect width="115" height="71" fill="white" transform="translate(0.5)"/>
</clipPath>
</defs>
</svg>
