<svg width="115" height="71" viewBox="0 0 115 71" fill="none" xmlns="http://www.w3.org/2000/svg">
<g clip-path="url(#clip0_294_981)">
<path d="M48.4675 29.1396H40.4449C36.6459 29.1396 33.4674 31.9563 33.3477 36.1488V38.3046C33.3477 42.0746 36.352 45.2813 40.4123 45.303H48.5546C52.6475 45.2596 55.6192 42.0746 55.6192 38.3046V36.1488C55.6083 32.3788 52.4516 29.1396 48.4675 29.1396ZM50.9711 37.6763C50.9276 39.7563 49.4036 41.3596 47.2483 41.3596H41.7077C39.5523 41.3596 37.9195 39.583 37.9957 37.6763V36.9071C38.0393 34.9138 39.5523 33.2238 41.7077 33.2238H47.2483C49.1968 33.2455 50.9711 34.773 50.9711 36.9071V37.6763Z" fill="white"/>
<path d="M71.1853 7.78747L64.5235 14.905H52.2012L58.9828 7.66831L52.2012 0.431641H64.5235L71.1853 7.54914L71.2942 7.65747L71.1853 7.78747Z" fill="white"/>
<path d="M93.1853 7.78747L86.5126 14.905H74.2012L80.9719 7.66831L74.2012 0.431641H86.5126L93.1853 7.54914L93.2942 7.65747L93.1853 7.78747Z" fill="white"/>
<path d="M114.564 7.78747L107.902 14.905H95.5801L102.362 7.66831L95.5801 0.431641H107.902L114.564 7.54914L114.684 7.65747L114.564 7.78747Z" fill="white"/>
<path d="M4.30445 14.6439C3.84727 14.6439 3.43362 14.5789 3.0744 14.4598C2.7043 14.3406 2.41039 14.1564 2.17091 13.9289C1.93143 13.7014 1.78992 13.4198 1.72461 13.1056L2.94378 12.9648C3.03086 13.2356 3.20503 13.4414 3.47716 13.5931C3.7493 13.7448 4.05409 13.8098 4.39154 13.8098C4.58747 13.8098 4.77253 13.7881 4.94669 13.7448C5.12086 13.7014 5.27326 13.6256 5.393 13.5389C5.51274 13.4523 5.56716 13.3439 5.56716 13.2031C5.56716 13.1598 5.55628 13.1056 5.5345 13.0623C5.51273 13.0189 5.48008 12.9756 5.44742 12.9323C5.40388 12.8889 5.34945 12.8564 5.26237 12.8239C5.18617 12.7914 5.0882 12.7589 4.96846 12.7264L3.36831 12.3689C3.24857 12.3473 3.10706 12.3039 2.95466 12.2606C2.79138 12.2173 2.63898 12.1414 2.49747 12.0548C2.34508 11.9681 2.22534 11.8489 2.12737 11.6973C2.0294 11.5456 1.97497 11.3614 1.97497 11.1339C1.97497 10.8198 2.08383 10.5489 2.29065 10.3431C2.49748 10.1373 2.78049 9.97475 3.12883 9.87725C3.47716 9.77975 3.85815 9.72559 4.28268 9.72559C4.70721 9.72559 5.0882 9.79059 5.41476 9.88809C5.75221 9.99642 6.02435 10.1481 6.25294 10.3539C6.48154 10.5598 6.64482 10.8089 6.74279 11.1014L5.49096 11.2639C5.44742 11.1123 5.36034 10.9823 5.2406 10.8739C5.12086 10.7656 4.96846 10.6898 4.80518 10.6356C4.6419 10.5814 4.45685 10.5489 4.2718 10.5489C4.08674 10.5489 3.91258 10.5598 3.76018 10.6031C3.5969 10.6464 3.46628 10.7114 3.36831 10.7873C3.27034 10.8631 3.21591 10.9606 3.21591 11.0798C3.21591 11.1773 3.25945 11.2639 3.33565 11.3289C3.42273 11.3939 3.5207 11.4481 3.65133 11.4806C3.78195 11.5239 3.90169 11.5564 4.03232 11.5781L5.09909 11.8056C5.26237 11.8381 5.43654 11.8814 5.63247 11.9356C5.82841 11.9898 6.01346 12.0656 6.18763 12.1631C6.3618 12.2606 6.51419 12.3798 6.62305 12.5423C6.74279 12.6939 6.79721 12.8998 6.79721 13.1381C6.79721 13.3873 6.7319 13.6148 6.59039 13.7989C6.44888 13.9831 6.26383 14.1456 6.03523 14.2648C5.80664 14.3839 5.5345 14.4814 5.2406 14.5464C4.91403 14.6223 4.62013 14.6439 4.30445 14.6439Z" fill="white"/>
<path d="M4.30448 14.7201C3.84729 14.7201 3.42276 14.6551 3.05266 14.5359C2.68255 14.4059 2.36688 14.2218 2.1274 13.9835C1.88792 13.7451 1.72464 13.4526 1.65932 13.1168L1.64844 13.041L2.99823 12.8893L3.02 12.9435C3.0962 13.2035 3.25948 13.3876 3.52073 13.5285C3.78198 13.6693 4.07589 13.7451 4.40245 13.7451C4.5875 13.7451 4.77255 13.7234 4.93583 13.6801C5.11 13.6368 5.24062 13.5718 5.34948 13.4851C5.44745 13.4093 5.49099 13.3226 5.49099 13.2143C5.49099 13.171 5.4801 13.1385 5.46922 13.106C5.45833 13.0735 5.42568 13.041 5.39302 13.0085C5.36037 12.976 5.30594 12.9434 5.22974 12.9109C5.15354 12.8784 5.05557 12.846 4.94672 12.8243L3.34656 12.4668C3.22682 12.4451 3.08531 12.4018 2.92203 12.3585C2.75875 12.3043 2.59547 12.2393 2.44307 12.1418C2.29068 12.0443 2.16005 11.9251 2.0512 11.7626C1.94235 11.6001 1.88792 11.4051 1.88792 11.1668C1.88792 10.831 1.99677 10.5493 2.21448 10.3218C2.43219 10.1051 2.72609 9.94262 3.07443 9.83428C3.42276 9.73678 3.80375 9.68262 4.22828 9.68262C4.23917 9.68262 4.25005 9.68262 4.25005 9.68262C4.67459 9.68262 5.06646 9.74762 5.40391 9.85595C5.74135 9.96428 6.03526 10.1268 6.26386 10.3435C6.49245 10.5601 6.66662 10.8201 6.77547 11.1234L6.80813 11.2101L5.40391 11.3943L5.38214 11.3401C5.3386 11.1993 5.2624 11.0801 5.15354 10.9826C5.0338 10.8851 4.90318 10.8093 4.7399 10.7551C4.57662 10.7009 4.40245 10.6793 4.22828 10.6685C4.05412 10.6685 3.89083 10.6793 3.73844 10.7226C3.58604 10.766 3.4663 10.8201 3.36834 10.896C3.28125 10.961 3.2486 11.0368 3.2486 11.1343C3.2486 11.2101 3.28125 11.2751 3.34656 11.3293C3.42276 11.3835 3.52073 11.4376 3.64047 11.4701C3.76021 11.5135 3.89084 11.5459 4.02146 11.5676L5.08823 11.7951C5.25151 11.8276 5.42568 11.871 5.62161 11.9251C5.81755 11.9793 6.01349 12.0551 6.19854 12.1526C6.3836 12.2501 6.53599 12.391 6.66662 12.5535C6.78636 12.716 6.85167 12.9326 6.85167 13.1818C6.85167 13.4526 6.77547 13.6909 6.63396 13.8859C6.49245 14.0809 6.29651 14.2434 6.05703 14.3734C5.81755 14.5034 5.54542 14.5901 5.24062 14.6551C4.92495 14.6876 4.62016 14.7201 4.30448 14.7201ZM1.81172 13.171C1.87703 13.4418 2.01854 13.6801 2.22537 13.8859C2.45396 14.1026 2.74787 14.276 3.0962 14.406C3.45542 14.5251 3.85818 14.5901 4.30448 14.5901C4.60927 14.5901 4.91406 14.5576 5.19708 14.5035C5.4801 14.4385 5.74136 14.3518 5.96995 14.2326C6.18766 14.1135 6.37271 13.9618 6.50333 13.7884C6.63396 13.6151 6.69927 13.3985 6.69927 13.1601C6.69927 12.9435 6.64485 12.7485 6.53599 12.6076C6.42714 12.4668 6.28563 12.3368 6.12234 12.2501C5.94818 12.1526 5.76313 12.0876 5.57807 12.0335C5.38214 11.9793 5.20797 11.936 5.05557 11.9035L3.9888 11.6759C3.85818 11.6543 3.72755 11.611 3.59693 11.5785C3.4663 11.5351 3.34656 11.481 3.25948 11.416C3.16151 11.3401 3.10709 11.2318 3.10709 11.1126C3.10709 10.9826 3.16151 10.8635 3.28125 10.766C3.3901 10.6793 3.53162 10.6143 3.70578 10.571C3.86907 10.5276 4.05412 10.506 4.23917 10.506C4.43511 10.506 4.62016 10.5384 4.79433 10.5926C4.96849 10.6468 5.13177 10.7335 5.25151 10.8418C5.37125 10.9393 5.45834 11.0585 5.50188 11.2101L6.61219 11.0693C6.51422 10.8201 6.37271 10.6034 6.17677 10.4301C5.95906 10.2351 5.68693 10.0835 5.36037 9.97512C5.0338 9.86679 4.6637 9.81262 4.25005 9.81262C4.23917 9.81262 4.22828 9.81262 4.22828 9.81262C3.82552 9.81262 3.45542 9.86678 3.11797 9.96428C2.78052 10.0618 2.50839 10.2134 2.31245 10.4193C2.11651 10.6143 2.01854 10.8635 2.01854 11.156C2.01854 11.3618 2.06208 11.5459 2.14917 11.6759C2.23625 11.8168 2.35599 11.9251 2.4975 12.0118C2.63901 12.0985 2.79141 12.1634 2.9438 12.2068C3.0962 12.2501 3.23771 12.2934 3.35745 12.3151L4.95761 12.6726C5.08823 12.7051 5.1862 12.7376 5.27328 12.7701C5.36037 12.8026 5.42568 12.846 5.46922 12.8893C5.52365 12.9326 5.5563 12.9868 5.57807 13.041C5.59984 13.0951 5.61073 13.1493 5.61073 13.2035C5.61073 13.3551 5.54542 13.4851 5.41479 13.5935C5.29505 13.691 5.13177 13.7668 4.94672 13.8101C4.76167 13.8535 4.56573 13.8859 4.36979 13.8859C4.02146 13.8859 3.6949 13.8101 3.42276 13.6585C3.16151 13.5176 2.97646 13.3118 2.87849 13.041L1.81172 13.171Z" fill="white"/>
<path d="M9.44151 14.5475V10.6583H7.50391V9.82416H12.5439V10.6583H10.5954V14.5475H9.44151Z" fill="white"/>
<path d="M10.6716 14.6229H9.36534V10.7337H7.42773V9.75873H12.6092V10.7337H10.6716V14.6229ZM9.50685 14.4821H10.5301V10.5929H12.4677V9.89956H7.56925V10.5929H9.50685V14.4821Z" fill="white"/>
<path d="M16.029 14.6451C15.5283 14.6451 15.0929 14.5692 14.7228 14.4176C14.3418 14.2659 14.0479 14.0492 13.8411 13.7676C13.6342 13.4859 13.5254 13.1609 13.5254 12.7817V9.83505L14.701 9.82422V12.7709C14.701 12.9226 14.7337 13.0634 14.799 13.1934C14.8643 13.3234 14.9623 13.4317 15.082 13.5184C15.2017 13.6051 15.3433 13.6809 15.5065 13.7351C15.6698 13.7892 15.844 13.8109 16.0182 13.8109C16.2032 13.8109 16.3774 13.7892 16.5406 13.7351C16.7039 13.6809 16.8454 13.6159 16.9652 13.5184C17.0849 13.4317 17.1829 13.3126 17.2482 13.1934C17.3135 13.0634 17.3462 12.9226 17.3462 12.7709V9.82422H18.5218V12.7817C18.5218 13.1609 18.4129 13.4859 18.2061 13.7676C17.9993 14.0492 17.7054 14.2659 17.3244 14.4176C16.9652 14.5692 16.5298 14.6451 16.029 14.6451Z" fill="white"/>
<path d="M16.0291 14.7206C15.5283 14.7206 15.082 14.6448 14.6902 14.4823C14.2983 14.3198 13.9935 14.0923 13.7758 13.8106C13.5581 13.5181 13.4492 13.1715 13.4492 12.7815V9.75897L14.7664 9.74814V12.7706C14.7664 12.9115 14.799 13.0415 14.8643 13.1606C14.9296 13.2798 15.0167 13.3773 15.1256 13.464C15.2344 13.5506 15.3759 13.6156 15.5283 13.659C15.844 13.7565 16.225 13.7565 16.5298 13.659C16.6822 13.6156 16.8128 13.5398 16.9326 13.4531C17.0414 13.3665 17.1285 13.269 17.1938 13.1498C17.2591 13.0306 17.2809 12.9006 17.2809 12.7598V9.7373H18.598V12.7598C18.598 13.1498 18.4892 13.4965 18.2715 13.789C18.0537 14.0815 17.749 14.309 17.3571 14.4606C16.9761 14.6448 16.5298 14.7206 16.0291 14.7206ZM13.5907 9.8998V12.7815C13.5907 13.139 13.6887 13.464 13.8955 13.724C14.1023 13.9948 14.3854 14.2006 14.7446 14.3523C15.1147 14.504 15.5392 14.5798 16.0291 14.5798C16.508 14.5798 16.9434 14.504 17.3135 14.3523C17.6728 14.2006 17.9667 13.9948 18.1626 13.724C18.3585 13.4531 18.4674 13.139 18.4674 12.7815V9.8998H17.4333V12.7815C17.4333 12.944 17.4006 13.0956 17.3244 13.2365C17.2482 13.3665 17.1503 13.4856 17.0305 13.5831C16.8999 13.6806 16.7584 13.7565 16.5842 13.8106C16.2577 13.919 15.844 13.919 15.5066 13.8106C15.3433 13.7565 15.1909 13.6806 15.0603 13.5831C14.9296 13.4856 14.8317 13.3665 14.7555 13.2365C14.6793 13.0956 14.6466 12.944 14.6466 12.7815V9.8998H13.5907Z" fill="white"/>
<path d="M20.0234 14.5466V9.82324H22.0155C22.059 9.82324 22.1679 9.82324 22.3094 9.82324C22.4618 9.82324 22.6033 9.83408 22.7448 9.84491C23.2455 9.88824 23.6592 10.0182 24.0075 10.2457C24.3558 10.4624 24.6171 10.7441 24.7913 11.0799C24.9654 11.4157 25.0634 11.7841 25.0634 12.1849C25.0634 12.5857 24.9763 12.9541 24.7913 13.2899C24.6171 13.6257 24.345 13.9074 24.0075 14.1241C23.6592 14.3407 23.2455 14.4707 22.7448 14.5249C22.6033 14.5357 22.4618 14.5466 22.3094 14.5466C22.157 14.5466 22.059 14.5466 22.0155 14.5466H20.0234ZM21.21 13.7124H22.0264C22.1026 13.7124 22.2114 13.7124 22.342 13.7124C22.4727 13.7124 22.5924 13.7016 22.7013 13.6799C22.9734 13.6366 23.1911 13.5391 23.3544 13.3874C23.5285 13.2357 23.6483 13.0516 23.7354 12.8457C23.8116 12.6291 23.8551 12.4124 23.8551 12.1849C23.8551 11.9466 23.8116 11.7191 23.7245 11.5132C23.6374 11.2966 23.5177 11.1232 23.3435 10.9716C23.1693 10.8199 22.9625 10.7332 22.7013 10.6899C22.5924 10.6682 22.4727 10.6574 22.342 10.6574C22.2114 10.6574 22.1026 10.6574 22.0264 10.6574H21.21V13.7124Z" fill="white"/>
<path d="M22.0144 14.6229H19.957V9.75873H22.0144C22.0579 9.75873 22.1668 9.75873 22.3192 9.75873C22.4716 9.75873 22.624 9.76956 22.7655 9.78039C23.2662 9.82373 23.7016 9.96456 24.0608 10.1921C24.4092 10.4196 24.6922 10.7012 24.8664 11.0479C25.0514 11.3946 25.1385 11.7737 25.1385 12.1854C25.1385 12.5971 25.0405 12.9762 24.8664 13.3229C24.6813 13.6696 24.4092 13.9621 24.0608 14.1787C23.7125 14.4062 23.2771 14.5362 22.7655 14.5904C22.624 14.6012 22.4824 14.6121 22.3192 14.6121C22.1668 14.6229 22.0688 14.6229 22.0144 14.6229ZM20.0985 14.4821H22.0144C22.0579 14.4821 22.1668 14.4821 22.3083 14.4821C22.4607 14.4821 22.6022 14.4712 22.7328 14.4604C23.2118 14.4171 23.6254 14.2871 23.9629 14.0704C24.3003 13.8646 24.5507 13.5829 24.7248 13.2579C24.899 12.9329 24.9861 12.5754 24.9861 12.1854C24.9861 11.7954 24.899 11.4379 24.7248 11.1129C24.5507 10.7879 24.3003 10.5171 23.9629 10.3004C23.6254 10.0837 23.2118 9.95373 22.7328 9.91039C22.6022 9.89956 22.4498 9.88873 22.2974 9.88873C22.145 9.88873 22.047 9.88873 22.0035 9.88873H20.0877V14.4821H20.0985ZM22.0144 13.7779H21.1327V10.5929H22.0144C22.0906 10.5929 22.1994 10.5929 22.3301 10.5929C22.4607 10.5929 22.5804 10.6037 22.7002 10.6254C22.9723 10.6687 23.2009 10.7662 23.3751 10.9179C23.5492 11.0696 23.6907 11.2646 23.7778 11.4812C23.8649 11.6979 23.9084 11.9362 23.9084 12.1746C23.9084 12.4129 23.8649 12.6404 23.7778 12.8571C23.6907 13.0737 23.5601 13.2687 23.3859 13.4312C23.2118 13.5937 22.9723 13.6912 22.6893 13.7346C22.5804 13.7454 22.4607 13.7562 22.3301 13.7671C22.1994 13.7779 22.0906 13.7779 22.0144 13.7779ZM21.2742 13.6371H22.0144C22.0906 13.6371 22.1994 13.6371 22.3301 13.6371C22.4607 13.6371 22.5804 13.6262 22.6784 13.6046C22.9288 13.5612 23.1356 13.4746 23.2989 13.3337C23.4621 13.1929 23.5819 13.0196 23.6581 12.8137C23.7343 12.6079 23.7778 12.4021 23.7778 12.1854C23.7778 11.9579 23.7343 11.7412 23.6581 11.5354C23.5819 11.3296 23.4513 11.1671 23.2989 11.0262C23.1356 10.8854 22.9287 10.7987 22.6893 10.7662C22.5804 10.7446 22.4716 10.7446 22.3409 10.7337C22.2103 10.7337 22.1015 10.7337 22.0253 10.7337H21.2851V13.6371H21.2742Z" fill="white"/>
<path d="M26.4785 14.5475V9.82416H27.6432V14.5475H26.4785Z" fill="white"/>
<path d="M27.7086 14.6229H26.4023V9.75873H27.7086V14.6229ZM26.5547 14.4821H27.578V9.89956H26.5547V14.4821Z" fill="white"/>
<path d="M31.8654 14.6449C31.245 14.6449 30.7224 14.5474 30.2761 14.3416C29.8298 14.1357 29.4815 13.8432 29.242 13.4749C29.0026 13.1066 28.8828 12.6732 28.8828 12.1857C28.8828 11.6982 29.0026 11.2649 29.242 10.8966C29.4815 10.5282 29.8298 10.2357 30.2761 10.0299C30.7224 9.82406 31.2558 9.72656 31.8654 9.72656C32.475 9.72656 33.0084 9.82406 33.4547 10.0299C33.901 10.2357 34.2493 10.5282 34.4888 10.8966C34.7283 11.2649 34.848 11.6982 34.848 12.1857C34.848 12.6732 34.7283 13.1066 34.4888 13.4749C34.2493 13.8432 33.901 14.1357 33.4547 14.3416C33.0084 14.5474 32.475 14.6449 31.8654 14.6449ZM31.8654 13.8107C32.2573 13.8107 32.5839 13.7457 32.8342 13.6157C33.0955 13.4857 33.2914 13.2907 33.422 13.0524C33.5527 12.8032 33.618 12.5216 33.618 12.1966C33.618 11.8716 33.5527 11.5791 33.422 11.3407C33.2914 11.1024 33.0955 10.9182 32.8342 10.7774C32.573 10.6474 32.2464 10.5716 31.8654 10.5716C31.4735 10.5716 31.147 10.6366 30.8966 10.7666C30.6354 10.8966 30.4394 11.0916 30.3088 11.3299C30.1782 11.5791 30.1129 11.8607 30.1129 12.1857C30.1129 12.5107 30.1782 12.8032 30.3088 13.0416C30.4394 13.2799 30.6354 13.4641 30.8966 13.6049C31.147 13.7349 31.4735 13.7999 31.8654 13.8107Z" fill="white"/>
<path d="M31.8663 14.7204C31.2458 14.7204 30.7015 14.6121 30.2443 14.4062C29.7872 14.2004 29.4279 13.8971 29.1885 13.5179C28.9381 13.1387 28.8184 12.6946 28.8184 12.1854C28.8184 11.6871 28.949 11.2321 29.1885 10.8529C29.4388 10.4737 29.7872 10.1704 30.2443 9.96456C30.7015 9.75872 31.2458 9.65039 31.8663 9.65039C32.4867 9.65039 33.031 9.75872 33.4882 9.96456C33.9454 10.1704 34.3046 10.4737 34.5441 10.8529C34.7945 11.2321 34.9142 11.6762 34.9142 12.1854C34.9142 12.6837 34.7836 13.1387 34.5441 13.5179C34.2937 13.8971 33.9454 14.2004 33.4882 14.4062C33.031 14.6121 32.4867 14.7204 31.8663 14.7204ZM31.8663 9.79122C31.2676 9.79122 30.7342 9.88872 30.3097 10.0946C29.8742 10.2896 29.5368 10.5712 29.3082 10.9287C29.0796 11.2862 28.9599 11.7087 28.9599 12.1854C28.9599 12.6621 29.0796 13.0846 29.3082 13.4421C29.5368 13.7996 29.8742 14.0812 30.3097 14.2762C30.7451 14.4821 31.2676 14.5796 31.8663 14.5796C32.465 14.5796 32.9984 14.4821 33.4229 14.2762C33.8583 14.0812 34.1958 13.7996 34.4243 13.4421C34.6529 13.0846 34.7727 12.6621 34.7727 12.1854C34.7727 11.7087 34.6529 11.2862 34.4243 10.9287C34.1958 10.5712 33.8583 10.2896 33.4229 10.0946C32.9875 9.89955 32.465 9.79122 31.8663 9.79122ZM31.8989 13.8754C31.888 13.8754 31.8772 13.8754 31.8663 13.8754C31.4635 13.8754 31.1261 13.7996 30.8648 13.6587C30.5927 13.5179 30.3859 13.3229 30.2552 13.0737C30.1246 12.8246 30.0484 12.5212 30.0484 12.1854C30.0484 11.8496 30.1137 11.5462 30.2552 11.2971C30.3859 11.0371 30.5927 10.8421 30.8648 10.7012C31.1261 10.5712 31.4526 10.4954 31.8336 10.4954C31.8445 10.4954 31.8554 10.4954 31.8772 10.4954C32.2799 10.4954 32.6174 10.5712 32.8786 10.7121C33.1508 10.8529 33.3576 11.0479 33.4882 11.2971C33.6188 11.5462 33.695 11.8496 33.695 12.1854C33.695 12.5212 33.6297 12.8246 33.4882 13.0737C33.3467 13.3337 33.1399 13.5287 32.8786 13.6696C32.6065 13.8104 32.2799 13.8754 31.8989 13.8754ZM31.8227 10.6362C31.4635 10.6362 31.1587 10.7012 30.9192 10.8204C30.6689 10.9504 30.4838 11.1237 30.3641 11.3621C30.2443 11.6004 30.179 11.8712 30.179 12.1854C30.179 12.4996 30.2443 12.7812 30.3641 13.0087C30.4838 13.2362 30.6689 13.4096 30.9192 13.5396C31.1696 13.6696 31.4853 13.7346 31.8663 13.7346C32.2473 13.7346 32.5629 13.6804 32.8024 13.5504C33.0419 13.4204 33.2378 13.2471 33.3576 13.0087C33.4773 12.7704 33.5426 12.4996 33.5426 12.1854C33.5426 11.8712 33.4773 11.5896 33.3576 11.3621C33.2378 11.1346 33.0528 10.9612 32.8024 10.8312C32.5521 10.7012 32.2364 10.6362 31.8554 10.6362C31.8554 10.6362 31.8336 10.6362 31.8227 10.6362Z" fill="white"/>
<path d="M27.4802 58.1519C27.4367 56.6027 27.219 54.8152 25.0746 52.9952C23.0063 51.251 19.425 51.5327 19.2944 51.5435H0.408203V71.2277L19.5665 71.1844C19.7189 71.1844 23.4635 71.076 25.3902 69.3752C27.785 67.2735 27.502 64.4569 27.4911 64.3485C27.4802 64.316 27.5238 59.766 27.4802 58.1519ZM22.7015 63.8394C22.7015 64.4135 22.6145 65.7352 21.798 66.2552C20.7204 66.9594 19.4903 66.9377 19.4686 66.9269H5.15425V55.8985H19.1856C19.2073 55.8985 20.9925 55.6602 21.8851 56.7977C22.7995 57.9677 22.6798 60.221 22.6798 60.2535V63.5685C22.6907 63.5685 22.7015 63.666 22.7015 63.8394Z" fill="white"/>
<path d="M27.8713 45.3029C26.8263 45.3029 25.7813 45.3029 25.7813 45.3029H25.5962V31.4146C25.5962 31.4038 25.6071 31.1546 25.4221 30.9704C25.2697 30.8079 25.0193 30.7321 24.6819 30.7321C23.7784 30.7321 23.4844 31.6421 23.4736 31.6529L17.8676 45.2813H12.6752L12.6317 45.1621L7.08013 31.6638C7.06925 31.6096 6.76445 30.7321 5.87185 30.7321C5.5344 30.7321 5.28404 30.8079 5.13164 30.9704C4.94659 31.1654 4.94659 31.4038 4.94659 31.4146V45.3138H4.76154C4.76154 45.3138 3.71654 45.3138 2.67154 45.3138C0.396487 45.3029 0.396484 45.3029 0.396484 45.0971V29.8438C0.396484 29.0204 0.603307 28.2404 0.995182 27.6013C1.3544 27.0054 2.4756 25.6079 5.06633 25.5104C8.42992 25.3804 10.1607 26.4529 11.4452 29.4754C12.033 30.8621 13.8944 35.3038 15.266 38.6079C16.6484 35.3038 18.4989 30.8621 19.0867 29.4754C20.3712 26.4638 22.102 25.3913 25.4656 25.5104C28.0672 25.6079 29.1775 27.0054 29.5367 27.6013C29.9286 28.2513 30.1354 29.0204 30.1354 29.8438V45.0863C30.1463 45.2921 30.1463 45.2921 27.8713 45.3029Z" fill="white"/>
<path d="M52.0911 62.7237C52.0693 62.0087 51.9822 61.1637 51.8298 60.4596C51.4815 58.8129 51.155 57.8596 49.5004 56.3537C47.9329 54.9346 44.7543 54.9454 44.7543 54.9454L29.6562 54.9346V58.5854H43.8073C43.8073 58.5854 45.549 58.4337 46.5831 59.3437C47.2689 59.9396 47.2689 61.2179 47.2689 61.2179L36.7971 61.1962C36.7971 61.1962 33.5968 61.1746 32.1381 62.0737C30.5053 63.0704 29.8957 64.3812 29.8522 66.4937C29.8087 68.2921 31.006 71.0762 35.1969 71.2171C35.2514 71.2171 39.9756 71.2062 43.0889 71.1954L43.0997 71.2171H52.102L52.0911 62.7237ZM35.9045 67.3496C35.9045 67.3496 34.337 67.3604 34.3696 66.0496C34.4132 64.5437 36.4814 64.7712 36.4814 64.7712H44.4278C44.4278 64.7712 46.0606 64.6521 46.7572 65.4862C47.2906 66.1254 47.2471 67.3604 47.2471 67.3604L35.9045 67.3496Z" fill="white"/>
<path d="M62.3347 66.9266H66.8739V71.2383H61.638C61.6271 71.2383 61.5945 71.2383 61.5291 71.2383C61.0502 71.2383 59.0799 71.13 57.2947 69.3858C55.2809 67.425 55.3353 65.3558 55.3462 65.2583V51.6191H60.0487C60.2229 51.6191 60.2229 51.6408 60.2338 53.2441L60.2664 64.8466C60.2555 65.995 61.1917 66.9266 62.3347 66.9266Z" fill="white"/>
<path d="M68.6492 45.3139C68.0723 45.3139 67.5389 45.3139 67.2777 45.3031C66.0694 45.2706 65.155 44.2197 65.1224 44.1764L60.6593 39.4531C60.6376 39.4314 59.7885 38.6839 59.0918 37.0589C58.3952 35.4339 58.4605 33.7764 58.4714 33.7114V29.1289H63.1739V29.3131C63.1739 29.3456 63.1412 32.2381 63.2501 33.6356C63.3589 35.0006 64.1645 36.2789 64.1753 36.2897C65.1006 37.4164 67.6587 40.4389 68.3553 40.7856C68.5622 40.8939 68.769 40.9481 68.9649 40.9481C69.1609 40.9481 69.3568 40.8831 69.5636 40.7856C70.2603 40.4389 72.8292 37.4164 73.7545 36.2789C73.7545 36.2789 74.56 35.0006 74.6689 33.6464C74.7777 32.2489 74.7451 29.3456 74.7451 29.3239V29.1397H79.4585V33.7222C79.4585 33.7872 79.5347 35.4339 78.838 37.0589C78.4897 37.8714 78.0978 38.4672 77.793 38.8572C77.4882 39.2581 77.2705 39.4422 77.2487 39.4639L72.7857 44.1872C72.753 44.2306 71.8387 45.2706 70.6304 45.3031C70.38 45.3139 69.8793 45.3139 69.335 45.3139H68.6492Z" fill="white"/>
<path d="M83.5068 23.5932C83.0932 21.7624 84.7042 20.1482 86.5439 20.5599C87.4691 20.7657 88.2202 21.5024 88.4379 22.4341C88.8625 24.2757 87.2405 25.8899 85.39 25.4782C84.4648 25.2724 83.7137 24.5249 83.5068 23.5932Z" fill="white"/>
<path d="M83.5176 28.75H85.379C87.0445 28.75 88.4051 30.7217 88.4051 32.3792V45.3142H83.5176V28.75Z" fill="white"/>
<path d="M76.7472 67.5877C76.7472 67.5877 76.6275 67.5986 76.4533 67.5986C75.8655 67.5986 74.5483 67.5227 73.917 66.8836C73.2748 66.2336 73.2094 65.3344 73.1986 64.9769H83.6594C83.7901 64.9769 86.7618 64.9986 88.264 64.1102C89.8968 63.1352 90.6261 61.7811 90.6261 59.7119C90.6261 57.5019 89.1892 55.0969 85.1399 54.9561C85.0637 54.9561 75.6151 54.9669 74.5484 54.9777C74.4395 54.9777 71.9903 54.9127 70.3139 56.5919C68.6485 58.2711 68.5178 59.9719 68.4525 60.9036C68.3763 61.8786 68.2348 63.9044 68.6049 65.6702C68.9641 67.3277 69.2254 68.2702 70.9344 69.8302C72.4584 71.2169 75.2886 71.2602 75.6587 71.2602H90.8003V67.5986L76.7472 67.5877ZM73.1986 61.4127C73.1986 61.2177 73.2203 60.9036 73.2748 60.5677C73.3401 60.2319 73.438 59.8744 73.6122 59.6252C74.2 58.7802 75.8873 58.8344 75.909 58.8344H84.0513C84.0622 58.8344 85.2269 58.8019 85.7821 59.3436C85.978 59.5277 86.0651 59.7552 86.0651 60.0477C86.0651 61.3152 84.7806 61.4236 84.7371 61.4344H73.1986V61.4127Z" fill="white"/>
<path d="M114.749 59.918C115.01 61.5105 114.988 62.4313 114.977 62.5071V71.1955H110.612V62.3338C110.612 60.503 109.11 59.0405 107.194 59.008C107.151 59.008 102.883 58.9646 102.078 59.008C99.9553 59.138 98.5946 60.2863 98.4749 62.0413V71.2388H93.5547V54.5771H98.4749V56.6463C100.587 54.978 103.602 55.0538 103.645 55.0538H107.728C107.782 55.0538 109.143 55.043 110.547 55.368C112.702 55.888 114.389 57.708 114.749 59.918Z" fill="white"/>
<path d="M101.012 41.6522C101.012 41.6522 100.892 41.663 100.707 41.663C100.109 41.663 98.8131 41.5872 98.1818 40.948C97.5395 40.298 97.4634 39.3988 97.4634 39.0413H107.924C108.055 39.0413 111.027 39.063 112.529 38.1747C114.162 37.1997 114.88 35.8455 114.88 33.7763C114.88 31.5663 113.443 29.1613 109.394 29.0205C109.307 29.0205 99.869 29.0313 98.8023 29.0422C98.7043 29.0422 96.2442 28.9772 94.5678 30.6563C92.9024 32.3355 92.7826 34.0363 92.7064 34.968C92.6302 35.943 92.4887 37.9688 92.8588 39.7347C93.218 41.3922 93.4793 42.3347 95.1883 43.8838C96.7123 45.2705 99.5425 45.3138 99.9126 45.3138H115.054V41.663H101.012V41.6522ZM97.4742 35.488C97.4742 35.293 97.496 34.9788 97.5504 34.643C97.6158 34.3072 97.7137 33.9497 97.8879 33.7005C98.4757 32.8555 100.163 32.9097 100.185 32.9097H108.327C108.338 32.9097 109.503 32.8772 110.058 33.4188C110.254 33.603 110.341 33.8305 110.341 34.123C110.341 35.3905 109.056 35.4988 109.013 35.5097H97.4742V35.488Z" fill="white"/>
</g>
<defs>
<clipPath id="clip0_294_981">
<rect width="115" height="71" fill="white"/>
</clipPath>
</defs>
</svg>
