<svg width="104" height="103" viewBox="0 0 104 103" fill="none" xmlns="http://www.w3.org/2000/svg">
<path d="M61.2857 60.7057L50.8408 71.1505L54.3332 74.6268C54.9608 75.2544 54.9608 76.2683 54.3332 76.896L51.9835 79.2457C51.3558 79.8733 50.3419 79.8733 49.6982 79.2457L24.2539 53.8014C23.6263 53.1577 23.6263 52.1438 24.2539 51.5161L26.6036 49.1664C27.2313 48.5388 28.2452 48.5388 28.8729 49.1664L32.3491 52.6588L42.7939 42.2139C44.0493 40.9586 46.0932 40.9586 47.3485 42.2139L47.4129 42.2944C48.6682 43.5497 48.6682 45.5936 47.4129 46.8489L36.9841 57.2777L46.2219 66.5155L56.6507 56.0868C57.906 54.8314 59.9499 54.8314 61.2052 56.0868L61.2857 56.1511C62.541 57.4064 62.541 59.4504 61.2857 60.7057Z" fill="black"/>
<path d="M52.0081 23.7546L49.6642 26.0985C49.0358 26.7269 49.0358 27.7458 49.6642 28.3742L75.1174 53.8274C75.7458 54.4558 76.7647 54.4558 77.3931 53.8274L79.737 51.4834C80.3654 50.855 80.3654 49.8362 79.737 49.2078L54.2838 23.7546C53.6554 23.1262 52.6365 23.1262 52.0081 23.7546Z" fill="black"/>
<path d="M76.8005 65.9844C76.1729 65.3568 75.1589 65.3568 74.5313 65.9844C73.9036 66.6121 73.9036 67.626 74.5313 68.2536L79.1502 72.8725C79.4721 73.1944 79.8744 73.3393 80.2929 73.3393C80.7113 73.3393 81.1136 73.1783 81.4355 72.8725C82.0632 72.2449 82.0632 71.231 81.4355 70.6033L76.8166 65.9844H76.8005Z" fill="black"/>
<path d="M88.0337 59.9495L82.0629 57.294C81.2583 56.94 80.3087 57.294 79.9386 58.1148C79.5845 58.9195 79.9386 59.8851 80.7593 60.2392L86.7301 62.8947C86.9394 62.9912 87.1647 63.0395 87.39 63.0395C88.0015 63.0395 88.597 62.6854 88.8706 62.09C89.2247 61.2853 88.8706 60.3197 88.0498 59.9656L88.0337 59.9495Z" fill="black"/>
<path d="M68.77 72.213C68.4159 71.4083 67.4503 71.0381 66.6456 71.3922C65.8409 71.7463 65.4708 72.7119 65.8248 73.5166L68.4803 79.4874C68.7539 80.0828 69.3333 80.4369 69.9609 80.4369C70.1862 80.4369 70.3955 80.3886 70.6208 80.2921C71.4255 79.938 71.7956 78.9724 71.4416 78.1677L68.7861 72.1969L68.77 72.213Z" fill="black"/>
<path d="M35.2464 28.9692C35.5683 29.2911 35.9706 29.4359 36.3891 29.4359C36.8075 29.4359 37.2098 29.275 37.5317 28.9692C38.1594 28.3416 38.1594 27.3277 37.5317 26.7L32.9128 22.0811C32.2852 21.4534 31.2713 21.4534 30.6436 22.0811C30.0159 22.7088 30.0159 23.7227 30.6436 24.3503L35.2625 28.9692H35.2464Z" fill="black"/>
<path d="M43.2772 22.7402C43.5508 23.3357 44.1301 23.6898 44.7417 23.6898C44.967 23.6898 45.1762 23.6415 45.4015 23.5449C46.2062 23.1909 46.5764 22.2252 46.2223 21.4206L43.5669 15.4498C43.2128 14.629 42.2633 14.2749 41.4425 14.629C40.6378 14.9831 40.2676 15.9487 40.6217 16.7534L43.2772 22.7242V22.7402Z" fill="black"/>
<path d="M24.0133 35.0043L29.984 37.6598C30.1933 37.7564 30.4186 37.8047 30.6439 37.8047C31.2554 37.8047 31.8509 37.4506 32.1084 36.8551C32.4625 36.0504 32.1084 35.0848 31.2876 34.7308L25.3168 32.0753C24.4961 31.7212 23.5626 32.0753 23.1925 32.8961C22.8384 33.7008 23.1925 34.6664 24.0133 35.0204V35.0043Z" fill="black"/>
<path d="M88.9675 21.4534L97.0626 13.3583L90.1262 6.42188L82.0311 14.517L71.4896 12.7628C69.4136 12.4087 67.2892 13.1008 65.7925 14.5814L57.7295 22.6444L80.8401 45.755L88.9031 37.692C90.3998 36.1953 91.0757 34.0709 90.7217 31.9948L88.9675 21.4534Z" fill="black"/>
<path d="M15.097 65.2925C13.6003 66.7892 12.9244 68.9136 13.2784 70.9896L15.0327 81.5311L6.9375 89.6262L13.8739 96.5626L21.9691 88.4675L32.5105 90.2217C34.5866 90.5757 36.7109 89.8837 38.2077 88.4031L46.2706 80.3401L23.16 57.2295L15.097 65.2925Z" fill="black"/>
</svg>
